# xmcd CD database file
#
# Track frame offsets:
#	150
#	14290
#	26372
#	41645
#	56035
#	70287
#	86654
#	100857
#	120450
#	135362
#	149180
#	167215
#	179017
#	205359
#	222051
#	233835
#	250660
#	274947
#	292668
#	303201
#	317620
#	330993
#
# Disc length: 4632 seconds
#
# Revision: 0
# Processed by: cddbd v1.5.2PL0 Copyright (c) Steve Scherf et al.
# Submitted via: CDex 1.70beta2
#
DISCID=3b121616
DTITLE=Melinda Schneider - Hits And Rarities
DYEAR=2008
DGENRE=Country
TTITLE0=Love's Out To Get Me
TTITLE1=Tv Or Me
TTITLE2=Three Rings
TTITLE3=Hey You Count To 3 ((James Roche Remix))
TTITLE4=Heart Of A Woman
TTITLE5=Love Away The Night
TTITLE6=Superwoman
TTITLE7=The Story Of My Life
TTITLE8=When The Last Child Leaves Home
TTITLE9=Can You Hear Me Down The Hillside
TTITLE10=Wearing White
TTITLE11=Reach Out
TTITLE12=Took The Children Away
TTITLE13=Real People
TTITLE14=I Wanna Be Married
TTITLE15=Sgt Bean
TTITLE16=Cootamundra Wattle
TTITLE17=Big World Small World
TTITLE18=Men In Trucks
TTITLE19=Stronger
TTITLE20=What Was I Thinking ((James Roche Remix))
TTITLE21=Wish You Were Here
EXTD=YEAR: 2008
EXTT0=
EXTT1=
EXTT2=
EXTT3=
EXTT4=
EXTT5=
EXTT6=
EXTT7=
EXTT8=
EXTT9=
EXTT10=
EXTT11=
EXTT12=
EXTT13=
EXTT14=
EXTT15=
EXTT16=
EXTT17=
EXTT18=
EXTT19=
EXTT20=
EXTT21=
PLAYORDER=
